<svg version="1.1" xmlns="http://www.w3.org/2000/svg" xmlns:xlink="http://www.w3.org/1999/xlink" width="68.11739" height="62.38578" viewBox="0,0,68.11739,62.38578"><g transform="translate(-285.94131,-148.80711)"><g data-paper-data="{&quot;isPaintingLayer&quot;:true}" fill-rule="nonzero" stroke="none" stroke-linecap="butt" stroke-linejoin="miter" stroke-miterlimit="10" stroke-dasharray="" stroke-dashoffset="0" style="mix-blend-mode: normal"><path d="M290.94131,163.68751h63.11739v37.94715c0,5.27887 -4.27934,9.55823 -9.55823,9.55823h-44.00093c-5.27887,0 -9.55823,-4.27936 -9.55823,-9.55823z" data-paper-data="{&quot;index&quot;:null}" fill="#ffffff" stroke-width="0"/><path d="M290.94131,163.36534c0,-5.27887 4.27936,-9.55823 9.55823,-9.55823h44.00093c5.27889,0 9.55823,4.27936 9.55823,9.55823v37.94715h-63.11739z" fill="#ffffff" stroke-width="0"/><path d="M285.94131,158.68751h63.11739v37.94715c0,5.27887 -4.27934,9.55823 -9.55823,9.55823h-44.00093c-5.27887,0 -9.55823,-4.27936 -9.55823,-9.55823z" data-paper-data="{&quot;index&quot;:null}" fill="#212121" stroke-width="0"/><path d="M285.94131,158.36534c0,-5.27887 4.27936,-9.55823 9.55823,-9.55823h44.00093c5.27889,0 9.55823,4.27936 9.55823,9.55823v37.94715h-63.11739z" fill="#212121" stroke-width="0"/><path d="M336.2697,182.91808c0.38,0.31 0.49,0.85 0.24,1.28l-4,6.93c-0.25,0.43 -0.77,0.6 -1.22,0.43l-4.98,-2.01c-1.03,0.8 -2.16,1.46 -3.38,1.97l-0.75,5.3c-0.08,0.47 -0.49,0.84 -0.99,0.84h-8c-0.5,0 -0.91,-0.37 -0.99,-0.84l-0.75,-5.3c-1.22,-0.51 -2.35,-1.18 -3.38,-1.97l-4.98,2.01c-0.45,0.18 -0.97,0 -1.22,-0.43l-4,-6.93c-0.25,-0.44 -0.14,-0.98 0.24,-1.28l4.22,-3.31c-0.08,-0.64 -0.14,-1.29 -0.14,-1.95c0,-0.66 0.06,-1.31 0.14,-1.95l-4.22,-3.31c-0.38,-0.31 -0.49,-0.85 -0.24,-1.28l4,-6.93c0.25,-0.43 0.77,-0.6 1.22,-0.43l4.98,2.01c1.03,-0.8 2.16,-1.46 3.38,-1.97l0.75,-5.3c0.08,-0.47 0.49,-0.84 0.99,-0.84h8c0.5,0 0.91,0.37 1,0.84l0.75,5.3c1.22,0.51 2.35,1.18 3.38,1.97l4.98,-2.01c0.45,-0.18 0.97,0 1.22,0.43l4,6.93c0.25,0.44 0.14,0.98 -0.24,1.28l-4.23,3.31c0.08,0.64 0.14,1.29 0.14,1.95c0,0.66 -0.06,1.31 -0.14,1.95zM324.1897,177.65808c0,-3.87 -3.13,-7 -7,-7c-3.87,0 -7,3.13 -7,7c0,3.87 3.13,7 7,7c3.87,0 7,-3.13 7,-7z" fill="#ffffff" stroke-width="1"/></g></g></svg>