<svg version="1.1" xmlns="http://www.w3.org/2000/svg" xmlns:xlink="http://www.w3.org/1999/xlink" width="16.49088" height="16.49089" viewBox="0,0,16.49088,16.49089"><defs><linearGradient x1="320.30936" y1="162.54843" x2="320.30936" y2="176.83515" gradientUnits="userSpaceOnUse" id="color-1"><stop offset="0" stop-color="#54ff7f" stop-opacity="0"/><stop offset="1" stop-color="#54ff7f"/></linearGradient><linearGradient x1="319.73132" y1="177.91138" x2="319.91474" y2="175.87031" gradientUnits="userSpaceOnUse" id="color-2"><stop offset="0" stop-color="#54ff7f" stop-opacity="0"/><stop offset="1" stop-color="#54ff7f" stop-opacity="0.90196"/></linearGradient><radialGradient cx="320.55069" cy="171.43866" r="8.24544" gradientUnits="userSpaceOnUse" id="color-3"><stop offset="0" stop-color="#00ff59" stop-opacity="0.51373"/><stop offset="1" stop-color="#00ff59" stop-opacity="0"/></radialGradient></defs><g transform="translate(-312.30524,-163.19321)"><g data-paper-data="{&quot;isPaintingLayer&quot;:true}" fill-rule="nonzero" stroke="none" stroke-width="0" stroke-linecap="butt" stroke-linejoin="miter" stroke-miterlimit="10" stroke-dasharray="" stroke-dashoffset="0" style="mix-blend-mode: normal"><path d="M317.78307,168.20133c2.60913,-1.44762 3.12945,3.69874 3.87427,2.61618c0.21517,-2.58875 0.47421,-6.0978 1.89009,-4.85305c1.1236,1.02259 1.62579,5.37203 2.30637,7.25709c0.22183,0.61443 -0.93235,-3.65378 0.5152,-2.5753c1.03174,1.37798 -1.24435,5.30242 -1.24435,5.30242l-10.00624,-0.45593c0,0 0.05553,-5.84379 2.66466,-7.29141z" fill="url(#color-1)"/><path d="M325.13261,175.92788l-0.18342,2.06314l-9.94224,-0.15929l0.11721,-2.35007z" data-paper-data="{&quot;index&quot;:null}" fill="url(#color-2)"/><path d="M312.30525,171.43866c0,-4.55383 3.69161,-8.24545 8.24544,-8.24545c4.55383,0 8.24544,3.69162 8.24544,8.24545c0,4.55383 -3.69161,8.24544 -8.24544,8.24544c-4.55383,0 -8.24544,-3.69161 -8.24544,-8.24544z" fill="url(#color-3)"/></g></g></svg>