<svg version="1.1" xmlns="http://www.w3.org/2000/svg" xmlns:xlink="http://www.w3.org/1999/xlink" width="21.47199" height="17.07809" viewBox="0,0,21.47199,17.07809"><g transform="translate(-312.62117,-171.428)"><g data-paper-data="{&quot;isPaintingLayer&quot;:true}" fill="#ffffff" fill-rule="nonzero" stroke="none" stroke-width="0" stroke-linecap="butt" stroke-linejoin="miter" stroke-miterlimit="10" stroke-dasharray="" stroke-dashoffset="0" style="mix-blend-mode: normal"><path d="M326.8227,176.86338l7.20657,-0.05965l0.06389,7.72131l-7.20657,0.05965z" data-paper-data="{&quot;index&quot;:null}"/><path d="M322.03174,176.83113l7.20657,-0.05965l0.0639,7.72131l-7.20657,0.05965z" data-paper-data="{&quot;index&quot;:null}"/><path d="M317.49296,173.27455l7.20657,-0.05965l0.0639,7.72131l-7.20657,0.05965z" data-paper-data="{&quot;index&quot;:null}"/><path d="M319.82774,184.65721l-7.20657,-0.05965l0.06389,-7.72131l7.20657,0.05965z" data-paper-data="{&quot;index&quot;:null}"/><path d="M324.61869,184.62496l-7.20657,-0.05965l0.0639,-7.72131l7.20657,0.05965z" data-paper-data="{&quot;index&quot;:null}"/><path d="M322.49296,171.48765l7.20657,-0.05965l0.0639,7.72131l-7.20657,0.05965z" data-paper-data="{&quot;index&quot;:null}"/><path d="M317.62938,178.93822l7.20657,0.05965l-0.0639,7.72131l-7.20657,-0.05965z" data-paper-data="{&quot;index&quot;:null}"/><path d="M322.62938,180.72512l7.20657,0.05965l-0.0639,7.72131l-7.20657,-0.05965z" data-paper-data="{&quot;index&quot;:null}"/></g></g></svg>