<svg version="1.1" xmlns="http://www.w3.org/2000/svg" xmlns:xlink="http://www.w3.org/1999/xlink" width="39.15573" height="35.60006" viewBox="0,0,39.15573,35.60006"><g transform="translate(-300.42215,-162.2)"><g data-paper-data="{&quot;isPaintingLayer&quot;:true}" stroke="none" stroke-linecap="butt" stroke-linejoin="miter" stroke-miterlimit="10" stroke-dasharray="" stroke-dashoffset="0" style="mix-blend-mode: normal"><path d="M300.42215,168.32946h39.15573v23.54103c0,3.27482 -2.65475,5.92958 -5.92958,5.92958h-27.29657c-3.27482,0 -5.92958,-2.65476 -5.92958,-5.92958z" data-paper-data="{&quot;index&quot;:null}" fill="#212121" fill-rule="nonzero" stroke-width="0"/><path d="M300.42215,168.12959c0,-3.27482 2.65476,-5.92958 5.92958,-5.92958h27.29657c3.27483,0 5.92958,2.65476 5.92958,5.92958v23.54103h-39.15573z" fill="#212121" fill-rule="nonzero" stroke-width="0"/><path d="M323.29498,166.93379c0.28706,-0.28746 0.6965,-0.52218 0.90948,-0.52218c0.44166,0 6.51053,3.44227 7.23723,4.10496c1.27465,1.16232 -0.31967,3.10208 -1.86809,2.27352c-0.866,-0.4634 -1.06771,0.57734 -1.93492,9.99629c-0.87486,9.50028 -0.83299,9.30341 -2.18293,10.31032c-1.33222,0.99444 -1.90554,0.77904 -9.27805,-3.48737c-8.10284,-4.68914 -8.08512,-4.67466 -8.08311,-6.54073c0.00121,-1.43851 0.51171,-1.90593 7.25536,-6.65144c9.19873,-6.47349 9.05701,-6.34345 7.9889,-7.33345c-0.71261,-0.66028 -0.72912,-1.46468 -0.04388,-2.14992M325.5548,173.34408c0.25324,-0.79192 0.1546,-0.8797 -0.35469,-0.31524c-0.22345,0.2476 -3.45274,2.60566 -7.17604,5.24031c-3.7233,2.63465 -6.6913,4.86911 -6.59508,4.96493c0.09623,0.09623 2.90319,1.75053 6.23797,3.67579l6.06324,3.50106l0.14736,-0.67155c0.08092,-0.36919 0.44689,-4.06994 0.81326,-8.22362c0.36637,-4.15368 0.75529,-7.83107 0.86399,-8.17168" fill="#ffffff" fill-rule="evenodd" stroke-width="1"/></g></g></svg>