<svg version="1.1" xmlns="http://www.w3.org/2000/svg" xmlns:xlink="http://www.w3.org/1999/xlink" width="63.11739" height="57.38577" viewBox="0,0,63.11739,57.38577"><g transform="translate(-288.4413,-151.30712)"><g data-paper-data="{&quot;isPaintingLayer&quot;:true}" fill-rule="nonzero" stroke="none" stroke-linecap="butt" stroke-linejoin="miter" stroke-miterlimit="10" stroke-dasharray="" stroke-dashoffset="0" style="mix-blend-mode: normal"><path d="M288.44131,161.1875h63.11739v37.94715c0,5.27887 -4.27934,9.55823 -9.55823,9.55823h-44.00093c-5.27887,0 -9.55823,-4.27936 -9.55823,-9.55823z" data-paper-data="{&quot;index&quot;:null}" fill="#000000" stroke-width="0"/><path d="M288.44131,160.86535c0,-5.27887 4.27936,-9.55823 9.55823,-9.55823h44.00093c5.27889,0 9.55823,4.27936 9.55823,9.55823v37.94715h-63.11739z" fill="#000000" stroke-width="0"/><path d="M292.3977,163.54596h55.20459v33.18985c0,4.61708 -3.74286,8.35995 -8.35995,8.35995h-38.48469c-4.61708,0 -8.35995,-3.74287 -8.35995,-8.35995z" data-paper-data="{&quot;index&quot;:null}" fill="#212121" stroke-width="0"/><path d="M292.3977,163.26419c0,-4.61708 3.74287,-8.35995 8.35995,-8.35995h38.48469c4.61709,0 8.35995,3.74287 8.35995,8.35995v33.18985h-55.20459z" fill="#212121" stroke-width="0"/><text transform="translate(297.21002,185.76875) scale(0.5,0.5)" font-size="40" xml:space="preserve" fill="#ffffff" fill-rule="nonzero" stroke="none" stroke-width="1" stroke-linecap="butt" stroke-linejoin="miter" stroke-miterlimit="10" stroke-dasharray="" stroke-dashoffset="0" font-family="Sans Serif" font-weight="normal" text-anchor="start" style="mix-blend-mode: normal"><tspan x="0" dy="0">Back</tspan></text></g></g></svg>