<svg version="1.1" xmlns="http://www.w3.org/2000/svg" xmlns:xlink="http://www.w3.org/1999/xlink" width="16.49088" height="16.49088" viewBox="0,0,16.49088,16.49088"><defs><linearGradient x1="320.30936" y1="162.54841" x2="320.30936" y2="176.83513" gradientUnits="userSpaceOnUse" id="color-1"><stop offset="0" stop-color="#54ff7f" stop-opacity="0"/><stop offset="1" stop-color="#54ff7f"/></linearGradient><linearGradient x1="319.73132" y1="177.91136" x2="319.91474" y2="175.87029" gradientUnits="userSpaceOnUse" id="color-2"><stop offset="0" stop-color="#54ff7f" stop-opacity="0"/><stop offset="1" stop-color="#54ff7f" stop-opacity="0.90196"/></linearGradient><radialGradient cx="320.55069" cy="171.43865" r="8.24544" gradientUnits="userSpaceOnUse" id="color-3"><stop offset="0" stop-color="#00ff59" stop-opacity="0.51373"/><stop offset="1" stop-color="#00ff59" stop-opacity="0"/></radialGradient></defs><g transform="translate(-312.30524,-163.19321)"><g data-paper-data="{&quot;isPaintingLayer&quot;:true}" fill-rule="nonzero" stroke="none" stroke-width="0" stroke-linecap="butt" stroke-linejoin="miter" stroke-miterlimit="10" stroke-dasharray="" stroke-dashoffset="0" style="mix-blend-mode: normal"><path d="M317.50533,169.10165c2.60914,-1.44761 3.37698,2.85845 4.1218,1.77589c1.38029,-2.00619 1.3261,-6.782 2.56188,-5.65732c1.1236,1.02259 0.98422,6.11625 1.66479,8.00132c0.22183,0.61443 -0.29152,-3.28069 0.69578,-1.96207c1.03174,1.37798 -1.39509,4.67082 -1.39509,4.67082l-10.02658,-0.21706c0,0 -0.23172,-5.16395 2.37742,-6.61157z" fill="url(#color-1)"/><path d="M325.16245,175.90948l-0.18342,2.06314l-9.96258,0.07958l0.11721,-2.35007z" data-paper-data="{&quot;index&quot;:null}" fill="url(#color-2)"/><path d="M312.30525,171.43865c0,-4.55383 3.69161,-8.24544 8.24544,-8.24544c4.55383,0 8.24544,3.69161 8.24544,8.24544c0,4.55383 -3.69161,8.24544 -8.24544,8.24544c-4.55383,0 -8.24544,-3.69161 -8.24544,-8.24544z" fill="url(#color-3)"/></g></g></svg>