<svg version="1.1" xmlns="http://www.w3.org/2000/svg" xmlns:xlink="http://www.w3.org/1999/xlink" width="209.8268" height="14.90236" viewBox="0,0,209.8268,14.90236"><g transform="translate(-215.0866,-172.54882)"><g data-paper-data="{&quot;isPaintingLayer&quot;:true}" fill-rule="nonzero" stroke="none" stroke-width="0" stroke-linecap="butt" stroke-linejoin="miter" stroke-miterlimit="10" stroke-dasharray="" stroke-dashoffset="0" style="mix-blend-mode: normal"><path d="M215.0866,183.04776c0,-2.34583 0,-5.02256 0,-6.38817c0,-1.69461 2.04351,-4.11077 3.94683,-4.11077c4.9769,0 26.98606,0 26.98606,0v14.90236c0,0 -21.91339,0 -26.91428,0c-1.93238,0 -4.01861,-2.03273 -4.01861,-4.40342z" fill="#ffffff"/><path d="M250.2011,187.45118v-14.90236h30.93289v14.90236z" fill="#808080"/><path d="M286.03632,187.45118v-14.90236h30.93289v14.90236z" fill="#808080"/><path d="M323.0002,187.45118v-14.90236h30.93289v14.90236z" fill="#808080"/><path d="M358.83542,187.45118v-14.90236h30.93289v14.90236z" fill="#808080"/><path d="M420.89479,187.45118c-5.00089,0 -26.91428,0 -26.91428,0v-14.90236c0,0 22.00916,0 26.98606,0c1.90332,0 3.94683,2.41616 3.94683,4.11077c0,1.36561 0,4.04234 0,6.38817c0,2.37069 -2.08623,4.40342 -4.01861,4.40342z" data-paper-data="{&quot;index&quot;:null}" fill="#808080"/></g></g></svg>