<svg version="1.1" xmlns="http://www.w3.org/2000/svg" xmlns:xlink="http://www.w3.org/1999/xlink" width="16.49088" height="16.49089" viewBox="0,0,16.49088,16.49089"><defs><linearGradient x1="320.30936" y1="162.54842" x2="320.30936" y2="176.83514" gradientUnits="userSpaceOnUse" id="color-1"><stop offset="0" stop-color="#54ff7f" stop-opacity="0"/><stop offset="1" stop-color="#54ff7f"/></linearGradient><linearGradient x1="319.73132" y1="177.91137" x2="319.91474" y2="175.8703" gradientUnits="userSpaceOnUse" id="color-2"><stop offset="0" stop-color="#54ff7f" stop-opacity="0"/><stop offset="1" stop-color="#54ff7f" stop-opacity="0.90196"/></linearGradient><linearGradient x1="320.30936" y1="162.54842" x2="320.30936" y2="176.83514" gradientUnits="userSpaceOnUse" id="color-3"><stop offset="0" stop-color="#54ff7f" stop-opacity="0"/><stop offset="1" stop-color="#54ff7f"/></linearGradient><linearGradient x1="319.73132" y1="177.91137" x2="319.91474" y2="175.8703" gradientUnits="userSpaceOnUse" id="color-4"><stop offset="0" stop-color="#54ff7f" stop-opacity="0"/><stop offset="1" stop-color="#54ff7f" stop-opacity="0.90196"/></linearGradient><linearGradient x1="320.30936" y1="162.54842" x2="320.30936" y2="176.83514" gradientUnits="userSpaceOnUse" id="color-5"><stop offset="0" stop-color="#54ff7f" stop-opacity="0"/><stop offset="1" stop-color="#54ff7f"/></linearGradient><linearGradient x1="319.73132" y1="177.91137" x2="319.91474" y2="175.8703" gradientUnits="userSpaceOnUse" id="color-6"><stop offset="0" stop-color="#54ff7f" stop-opacity="0"/><stop offset="1" stop-color="#54ff7f" stop-opacity="0.90196"/></linearGradient><radialGradient cx="320.55069" cy="171.43866" r="8.24544" gradientUnits="userSpaceOnUse" id="color-7"><stop offset="0" stop-color="#00ff59" stop-opacity="0.51373"/><stop offset="1" stop-color="#00ff59" stop-opacity="0"/></radialGradient></defs><g transform="translate(-312.30524,-163.19321)"><g data-paper-data="{&quot;isPaintingLayer&quot;:true}" fill-rule="nonzero" stroke="none" stroke-width="0" stroke-linecap="butt" stroke-linejoin="miter" stroke-miterlimit="10" stroke-dasharray="" stroke-dashoffset="0" style="mix-blend-mode: normal"><path d="" fill="url(#color-1)"/><path d="" data-paper-data="{&quot;index&quot;:null}" fill="url(#color-2)"/><path d="" fill="url(#color-3)"/><path d="" data-paper-data="{&quot;index&quot;:null}" fill="url(#color-4)"/><path d="M318.06986,168.75578c2.60913,-1.44762 2.63235,3.14429 3.37717,2.06173c0.21517,-2.58875 0.2639,-5.90661 1.67978,-4.66186c1.1236,1.02259 2.04641,5.18084 2.72699,7.0659c0.22183,0.61443 -0.83676,-3.2714 0.61079,-2.19292c1.03174,1.37798 -1.33994,4.92004 -1.33994,4.92004l-10.02974,-0.45593c0,0 0.36582,-5.28934 2.97495,-6.73696z" fill="url(#color-5)"/><path d="M325.13261,175.92787l-0.18342,2.06314l-9.96574,-0.15929l0.11721,-2.35007z" data-paper-data="{&quot;index&quot;:null}" fill="url(#color-6)"/><path d="M312.30525,171.43866c0,-4.55383 3.69161,-8.24545 8.24544,-8.24545c4.55383,0 8.24544,3.69162 8.24544,8.24545c0,4.55383 -3.69161,8.24544 -8.24544,8.24544c-4.55383,0 -8.24544,-3.69161 -8.24544,-8.24544z" fill="url(#color-7)"/></g></g></svg>