<svg version="1.1" xmlns="http://www.w3.org/2000/svg" xmlns:xlink="http://www.w3.org/1999/xlink" width="68.11739" height="62.38578" viewBox="0,0,68.11739,62.38578"><g transform="translate(-285.94131,-148.80711)"><g data-paper-data="{&quot;isPaintingLayer&quot;:true}" fill-rule="nonzero" stroke="none" stroke-linecap="butt" stroke-linejoin="miter" stroke-miterlimit="10" stroke-dasharray="" stroke-dashoffset="0" style="mix-blend-mode: normal"><path d="M290.94131,163.68751h63.11739v37.94715c0,5.27887 -4.27934,9.55823 -9.55823,9.55823h-44.00093c-5.27887,0 -9.55823,-4.27936 -9.55823,-9.55823z" data-paper-data="{&quot;index&quot;:null}" fill="#ffffff" stroke-width="0"/><path d="M290.94131,163.36534c0,-5.27887 4.27936,-9.55823 9.55823,-9.55823h44.00093c5.27889,0 9.55823,4.27936 9.55823,9.55823v37.94715h-63.11739z" fill="#ffffff" stroke-width="0"/><path d="M285.94131,158.68751h63.11739v37.94715c0,5.27887 -4.27934,9.55823 -9.55823,9.55823h-44.00093c-5.27887,0 -9.55823,-4.27936 -9.55823,-9.55823z" data-paper-data="{&quot;index&quot;:null}" fill="#212121" stroke-width="0"/><path d="M285.94131,158.36534c0,-5.27887 4.27936,-9.55823 9.55823,-9.55823h44.00093c5.27889,0 9.55823,4.27936 9.55823,9.55823v37.94715h-63.11739z" fill="#212121" stroke-width="0"/><text transform="translate(286.68979,182.28735) scale(0.35514,0.35514)" font-size="40" xml:space="preserve" fill="#ffffff" fill-rule="nonzero" stroke="none" stroke-width="1" stroke-linecap="butt" stroke-linejoin="miter" stroke-miterlimit="10" stroke-dasharray="" stroke-dashoffset="0" font-family="Sans Serif" font-weight="normal" text-anchor="start" style="mix-blend-mode: normal"><tspan x="0" dy="0">Respawn</tspan></text></g></g></svg>