<svg version="1.1" xmlns="http://www.w3.org/2000/svg" xmlns:xlink="http://www.w3.org/1999/xlink" width="682.69559" height="37.87017" viewBox="0,0,682.69559,37.87017"><g transform="translate(24.42608,-39.47436)"><g data-paper-data="{&quot;isPaintingLayer&quot;:true}" fill-rule="nonzero" stroke-linejoin="miter" stroke-miterlimit="10" stroke-dasharray="" stroke-dashoffset="0" style="mix-blend-mode: normal"><path d="M341.94258,71.32931c0,0 -1.44175,-1.06373 -1.44175,-4.43196c0,-6.80774 0,-17.72888 0,-21.58088c0,-2.66305 1.10362,-4.37636 1.10362,-4.37636c0,0 1.00754,-1.46575 3.70364,-1.46575c14.28791,0 135.00977,0 135.00977,0v33.15254c0,0 -119.33542,0 -134.35974,0c-3.02795,0 -4.01553,-1.29758 -4.01553,-1.29758z" fill="#151515" stroke="none" stroke-width="0" stroke-linecap="butt"/><path d="M363.75905,58.41163l9.00323,9.00322" fill="none" stroke="#ffffff" stroke-width="4" stroke-linecap="round"/><path d="M350.93627,52.88692c0,-4.48265 3.6339,-8.11655 8.11655,-8.11655c4.48265,0 8.11654,3.6339 8.11654,8.11655c0,4.48265 -3.6339,8.11654 -8.11654,8.11654c-4.48265,0 -8.11655,-3.6339 -8.11655,-8.11654z" fill="#212121" stroke="#ffffff" stroke-width="4" stroke-linecap="butt"/><text transform="translate(391.13882,62.12485) scale(0.5,0.5)" font-size="40" xml:space="preserve" fill="#ffffff" fill-rule="nonzero" stroke="none" stroke-width="1" stroke-linecap="butt" stroke-linejoin="miter" stroke-miterlimit="10" stroke-dasharray="" stroke-dashoffset="0" font-family="Sans Serif" font-weight="normal" text-anchor="start" style="mix-blend-mode: normal"><tspan x="0" dy="0">Search</tspan></text><path d="M-23.42608,76.34454l680.69559,0" fill="none" stroke="#ffffff" stroke-width="2" stroke-linecap="round"/></g></g></svg>