<svg version="1.1" xmlns="http://www.w3.org/2000/svg" xmlns:xlink="http://www.w3.org/1999/xlink" width="48.92979" height="24.85295" viewBox="0,0,48.92979,24.85295"><g transform="translate(-286.14807,-167.31336)"><g data-paper-data="{&quot;isPaintingLayer&quot;:true}" fill-rule="nonzero" stroke-linejoin="miter" stroke-miterlimit="10" stroke-dasharray="" stroke-dashoffset="0" style="mix-blend-mode: normal"><path d="M286.14807,180.64267h41.40086v3.52364c0,4.41828 -3.5817,8 -8,8h-25.40086c-4.41828,0 -8,-3.58172 -8,-8z" data-paper-data="{&quot;index&quot;:null}" fill="#000000" stroke="none" stroke-width="1" stroke-linecap="butt"/><path d="M286.14807,177.54115c0,-4.41828 3.58172,-8 8,-8h25.40086c4.4183,0 8,3.58172 8,8v6.1188h-41.40086z" data-paper-data="{&quot;index&quot;:null}" fill="#000000" stroke="none" stroke-width="1" stroke-linecap="butt"/><text transform="translate(290.14547,182.74622) scale(0.14742,0.14742)" font-size="40" xml:space="preserve" data-paper-data="{&quot;index&quot;:null}" fill="#ffffff" fill-rule="nonzero" stroke="none" stroke-width="1" stroke-linecap="butt" stroke-linejoin="miter" stroke-miterlimit="10" stroke-dasharray="" stroke-dashoffset="0" font-family="Sans Serif" font-weight="normal" text-anchor="start" style="mix-blend-mode: normal"><tspan x="0" dy="0">Direction</tspan></text><path d="M330.82336,186.6875c0,0 -2.89586,-0.73414 -6.17613,-5.80385c-3.14433,-4.8596 -2.69887,-7.82115 -2.69887,-7.82115" fill="none" stroke="#000000" stroke-width="4" stroke-linecap="round"/><path d="M316.24965,175.45347l4.99828,-5.51534l5.51534,3.70562" fill="none" stroke="#000000" stroke-width="4" stroke-linecap="round"/><path d="M333.07786,181.65145l-0.6417,6.61353l-7.43468,0.35664" data-paper-data="{&quot;index&quot;:null}" fill="none" stroke="#000000" stroke-width="4" stroke-linecap="round"/><path d="M330.82336,186.6875c0,0 -2.89586,-0.73414 -6.17613,-5.80385c-3.14433,-4.8596 -2.69887,-9.44615 -2.69887,-9.44615" fill="none" stroke="#ffffff" stroke-width="2" stroke-linecap="round"/><path d="M316.24965,175.45347l4.99828,-5.51534l5.51534,3.70562" fill="none" stroke="#ffffff" stroke-width="2" stroke-linecap="round"/><path d="M333.07786,181.65145l-0.6417,6.61353l-7.43468,0.35664" data-paper-data="{&quot;index&quot;:null}" fill="none" stroke="#ffffff" stroke-width="2" stroke-linecap="round"/></g></g></svg>