<svg version="1.1" xmlns="http://www.w3.org/2000/svg" xmlns:xlink="http://www.w3.org/1999/xlink" width="16.49088" height="16.49089" viewBox="0,0,16.49088,16.49089"><defs><linearGradient x1="320" y1="180" x2="320" y2="180" gradientUnits="userSpaceOnUse" id="color-1"><stop offset="0" stop-color="#54ff7f" stop-opacity="0"/><stop offset="1" stop-color="#54ff7f"/></linearGradient><linearGradient x1="320" y1="180" x2="320" y2="180" gradientUnits="userSpaceOnUse" id="color-2"><stop offset="0" stop-color="#54ff7f" stop-opacity="0"/><stop offset="1" stop-color="#54ff7f" stop-opacity="0.90196"/></linearGradient><linearGradient x1="320.30936" y1="162.54844" x2="320.30936" y2="176.83516" gradientUnits="userSpaceOnUse" id="color-3"><stop offset="0" stop-color="#54ff7f" stop-opacity="0"/><stop offset="1" stop-color="#54ff7f"/></linearGradient><linearGradient x1="319.73132" y1="177.91139" x2="319.91474" y2="175.87032" gradientUnits="userSpaceOnUse" id="color-4"><stop offset="0" stop-color="#54ff7f" stop-opacity="0"/><stop offset="1" stop-color="#54ff7f" stop-opacity="0.90196"/></linearGradient><radialGradient cx="320.55069" cy="171.43866" r="8.24544" gradientUnits="userSpaceOnUse" id="color-5"><stop offset="0" stop-color="#00ff59" stop-opacity="0.51373"/><stop offset="1" stop-color="#00ff59" stop-opacity="0"/></radialGradient></defs><g transform="translate(-312.30524,-163.19321)"><g data-paper-data="{&quot;isPaintingLayer&quot;:true}" fill-rule="nonzero" stroke="none" stroke-width="0" stroke-linecap="butt" stroke-linejoin="miter" stroke-miterlimit="10" stroke-dasharray="" stroke-dashoffset="0" style="mix-blend-mode: normal"><path d="" fill="url(#color-1)"/><path d="" data-paper-data="{&quot;index&quot;:null}" fill="url(#color-2)"/><path d="M317.63792,169.09002c2.64545,-0.90276 3.2746,2.81006 4.01942,1.7275c0.56106,-0.92301 0.75997,-1.6577 1.00882,-2.50381c0.50871,-1.72969 0.97305,-3.00133 1.67992,-2.53135c1.1236,1.02259 0.82714,5.55413 1.50772,7.43919c0.22183,0.61443 -0.49689,-2.81861 0.64191,-1.93991c1.03174,1.37798 -1.34756,4.66703 -1.34756,4.66703l-10.02974,-0.45593c0,0 -0.30441,-5.43907 2.51951,-6.40273z" fill="url(#color-3)"/><path d="M325.15611,175.92789l-0.18342,2.06314l-9.96574,-0.15929l0.11721,-2.35007z" data-paper-data="{&quot;index&quot;:null}" fill="url(#color-4)"/><path d="M312.30525,171.43866c0,-4.55383 3.69161,-8.24545 8.24544,-8.24545c4.55383,0 8.24544,3.69162 8.24544,8.24545c0,4.55383 -3.69161,8.24544 -8.24544,8.24544c-4.55383,0 -8.24544,-3.69161 -8.24544,-8.24544z" fill="url(#color-5)"/></g></g></svg>