<svg version="1.1" xmlns="http://www.w3.org/2000/svg" xmlns:xlink="http://www.w3.org/1999/xlink" width="37.50662" height="37.50661" viewBox="0,0,37.50662,37.50661"><g transform="translate(-301.5008,-167.71895)"><g data-paper-data="{&quot;isPaintingLayer&quot;:true}" fill-rule="nonzero" stroke-linecap="butt" stroke-linejoin="miter" stroke-miterlimit="10" stroke-dasharray="" stroke-dashoffset="0" style="mix-blend-mode: normal"><path d="M339.00742,198.97446c0,3.45239 -2.79871,6.2511 -6.2511,6.2511h-25.00441c-3.4524,0 -6.2511,-2.79871 -6.2511,-6.2511v-31.25551h37.50662z" fill="#000000" stroke="none" stroke-width="1"/><path d="M336.06868,197.01529c0,2.91138 -2.36014,5.27152 -5.27152,5.27152h-21.08609c-2.9114,0 -5.27152,-2.36014 -5.27152,-5.27152v-26.35761h31.62913z" fill="#1f1f1f" stroke="none" stroke-width="1"/><path d="M308.55437,192.66184v-8.24968h24.09777v8.24969z" fill="#ff6666" stroke="#000000" stroke-width="2"/><text transform="translate(306.83511,192.05276) scale(0.27189,0.27189)" font-size="40" xml:space="preserve" fill="#ffffff" fill-rule="nonzero" stroke="none" stroke-width="1" stroke-linecap="butt" stroke-linejoin="miter" stroke-miterlimit="10" stroke-dasharray="" stroke-dashoffset="0" font-family="Sans Serif" font-weight="normal" text-anchor="start" style="mix-blend-mode: normal"><tspan x="0" dy="0">Error</tspan></text><path d="M329.46011,174.46438c0,-1.61821 1.31182,-2.93003 2.93003,-2.93003c1.61821,0 2.93003,1.31181 2.93003,2.93003c0,1.61821 -1.31182,2.93003 -2.93003,2.93003c-1.61821,0 -2.93003,-1.31181 -2.93003,-2.93003z" fill="#9966ff" stroke="none" stroke-width="0"/></g></g></svg>