<svg version="1.1" xmlns="http://www.w3.org/2000/svg" xmlns:xlink="http://www.w3.org/1999/xlink" width="260.11808" height="57.54281" viewBox="0,0,260.11808,57.54281"><g transform="translate(-208.57347,-151.23777)"><g data-paper-data="{&quot;isPaintingLayer&quot;:true}" fill-rule="nonzero" stroke-linejoin="miter" stroke-miterlimit="10" stroke-dasharray="" stroke-dashoffset="0" style="mix-blend-mode: normal"><path d="M208.57348,190.05123h260.11807v14.54101c0,2.26806 -1.83861,4.10668 -4.10668,4.10668h-251.9047c-2.26806,0 -4.10668,-1.83862 -4.10668,-4.10668z" data-paper-data="{&quot;index&quot;:null}" fill="#151515" stroke="none" stroke-width="0" stroke-linecap="butt"/><path d="M208.57348,155.40777c0,-2.26806 1.83862,-4.10668 4.10668,-4.10668h251.9047c2.26807,0 4.10668,1.83862 4.10668,4.10668v49.04605h-260.11807z" fill="#151515" stroke="none" stroke-width="0" stroke-linecap="butt"/><path d="M399.28718,208.78059v-57.54281h8.73732v57.54281z" fill="#ffffff" stroke="none" stroke-width="0" stroke-linecap="butt"/><path d="M445.32092,166.12173c0,0 -7.43199,23.73989 -9.06938,28.19706c-0.58692,1.59766 -1.43468,0.39618 -1.43468,0.39618l-6.6844,-13.88815" fill="none" stroke="#10ff00" stroke-width="5" stroke-linecap="round"/><text transform="translate(252.6141,187.51096) scale(0.48463,0.48463)" font-size="40" xml:space="preserve" fill="#ffffff" fill-rule="nonzero" stroke="none" stroke-width="1" stroke-linecap="butt" stroke-linejoin="miter" stroke-miterlimit="10" stroke-dasharray="" stroke-dashoffset="0" font-family="Sans Serif" font-weight="normal" text-anchor="start" style="mix-blend-mode: normal"><tspan x="0" dy="0">Jump 100 times</tspan></text></g></g></svg>