<svg version="1.1" xmlns="http://www.w3.org/2000/svg" xmlns:xlink="http://www.w3.org/1999/xlink" width="30.55814" height="26.36269" viewBox="0,0,30.55814,26.36269"><g transform="translate(-304.72093,-166.81867)"><g data-paper-data="{&quot;isPaintingLayer&quot;:true}" fill-rule="nonzero" stroke="none" stroke-width="1" stroke-linecap="butt" stroke-linejoin="miter" stroke-miterlimit="10" stroke-dasharray="" stroke-dashoffset="0" style="mix-blend-mode: normal"><path d="M304.72093,181.65772h30.55814v3.52364c0,4.41828 -3.5817,8 -8,8h-14.55814c-4.41828,0 -8,-3.58172 -8,-8z" data-paper-data="{&quot;index&quot;:null}" fill="#000000"/><path d="M304.72093,174.81867c0,-4.41828 3.58172,-8 8,-8h14.55814c4.4183,0 8,3.58172 8,8v9.85634h-30.55814z" data-paper-data="{&quot;index&quot;:null}" fill="#000000"/><path d="M329.47789,182.61356c0.18881,0.15403 0.24347,0.42234 0.11925,0.636l-1.9875,3.44334c-0.12422,0.21366 -0.38259,0.29812 -0.60619,0.21366l-2.47444,-0.99872c-0.51178,0.3975 -1.07325,0.72544 -1.67944,0.97884l-0.37266,2.63344c-0.03975,0.23353 -0.24347,0.41738 -0.49191,0.41738h-3.975c-0.24844,0 -0.45216,-0.18384 -0.49191,-0.41738l-0.37266,-2.63344c-0.60619,-0.25341 -1.16766,-0.58631 -1.67944,-0.97884l-2.47444,0.99872c-0.22359,0.08944 -0.48197,0 -0.60619,-0.21366l-1.9875,-3.44334c-0.12422,-0.21863 -0.06956,-0.48694 0.11925,-0.636l2.09681,-1.64466c-0.03975,-0.318 -0.06956,-0.64097 -0.06956,-0.96891c0,-0.32794 0.02981,-0.65091 0.06956,-0.96891l-2.09681,-1.64466c-0.18881,-0.15403 -0.24347,-0.42234 -0.11925,-0.636l1.9875,-3.44334c0.12422,-0.21366 0.38259,-0.29812 0.60619,-0.21366l2.47444,0.99872c0.51178,-0.3975 1.07325,-0.72544 1.67944,-0.97884l0.37266,-2.63344c0.03975,-0.23353 0.24347,-0.41737 0.49191,-0.41737h3.975c0.24844,0 0.45216,0.18384 0.49687,0.41737l0.37266,2.63344c0.60619,0.25341 1.16766,0.58631 1.67944,0.97884l2.47444,-0.99872c0.22359,-0.08944 0.48197,0 0.60619,0.21366l1.9875,3.44334c0.12422,0.21862 0.06956,0.48694 -0.11925,0.636l-2.10178,1.64466c0.03975,0.318 0.06956,0.64097 0.06956,0.96891c0,0.32794 -0.02981,0.65091 -0.06956,0.96891zM323.47564,180c0,-1.92291 -1.55522,-3.47813 -3.47813,-3.47813c-1.92291,0 -3.47812,1.55522 -3.47812,3.47813c0,1.92291 1.55522,3.47813 3.47812,3.47813c1.92291,0 3.47813,-1.55522 3.47813,-3.47813z" fill="#ffffff"/></g></g></svg>